<?xml version="1.0" encoding="UTF-8"?>
<svg id="Layer_2" data-name="Layer 2" xmlns="http://www.w3.org/2000/svg" xmlns:xlink="http://www.w3.org/1999/xlink" viewBox="0 0 1003 412">
  <defs>
    <style>
      .cls-1 {
        fill: url(#linear-gradient);
      }

      .cls-2 {
        fill: #fff;
      }
    </style>
    <linearGradient id="linear-gradient" x1="235.26" y1="454.64" x2="731.47" y2="-41.56" gradientTransform="translate(-14)" gradientUnits="userSpaceOnUse">
      <stop offset="0" stop-color="#c46e17"/>
      <stop offset=".04" stop-color="#bb7020"/>
      <stop offset=".11" stop-color="#a57639"/>
      <stop offset=".19" stop-color="#818063"/>
      <stop offset=".28" stop-color="#508d9c"/>
      <stop offset=".37" stop-color="#1e9cd7"/>
      <stop offset=".63" stop-color="#1e9cd7"/>
      <stop offset=".99" stop-color="#b98904"/>
    </linearGradient>
  </defs>
  <g>
    <path class="cls-2" d="m114.74,342.85c-3.76,0-6.58-1.07-8.46-3.21-1.88-2.14-2.94-4.72-3.17-7.75l-26.07-243.36c-.24-3.27.47-5.79,2.11-7.56,1.64-1.76,3.75-2.65,6.34-2.65h35.94c3.52,0,6.04,1.01,7.58,3.02,1.52,2.02,2.41,4.03,2.64,6.05l18.32,184.79,91.25-184.79c.7-2.01,2.17-4.03,4.4-6.05,2.23-2.01,5.11-3.02,8.63-3.02h40.52c2.82,0,4.64,1.2,5.46,3.59.82,2.4.53,4.98-.88,7.75l-121.55,242.22c-1.41,3.02-3.41,5.61-5.99,7.75-2.59,2.14-5.87,3.21-9.87,3.21h-47.21Z"/>
    <path class="cls-2" d="m276.11,342.85c-2.35,0-4.23-.88-5.64-2.65-1.41-1.76-1.88-4.03-1.41-6.8l48.62-245.63c.47-2.77,1.76-5.04,3.88-6.8,2.11-1.76,4.34-2.65,6.69-2.65h159.6c2.58,0,4.52.89,5.81,2.65,1.29,1.77,1.7,4.03,1.23,6.8l-5.99,30.23c-.47,2.52-1.71,4.66-3.7,6.42-2,1.77-4.29,2.65-6.87,2.65h-114.15l-11.98,59.33h106.4c2.58,0,4.52.89,5.81,2.65,1.29,1.77,1.7,4.03,1.23,6.8l-5.64,27.96c-.47,2.52-1.71,4.66-3.7,6.42-2,1.77-4.29,2.65-6.87,2.65h-106.05l-12.33,61.22h116.97c2.58,0,4.52.89,5.81,2.65,1.29,1.77,1.7,4.03,1.23,6.8l-5.99,29.85c-.47,2.77-1.71,5.04-3.7,6.8-2,1.77-4.29,2.65-6.87,2.65h-162.42Z"/>
    <path class="cls-2" d="m462.13,342.85c-2.82,0-4.81-1.45-5.99-4.35-1.17-2.89-.7-5.6,1.41-8.12l106.05-123.95-54.26-116.01c-1.41-2.77-1.29-5.48.35-8.12,1.64-2.65,3.99-3.97,7.05-3.97h38.4c4.23,0,7.1.94,8.63,2.83,1.52,1.89,2.52,3.47,3,4.72l35.94,77.09,64.12-77.09c1.17-1.26,2.76-2.83,4.76-4.72,1.99-1.89,5.11-2.83,9.34-2.83h42.28c3.05,0,5.11,1.45,6.17,4.35,1.06,2.9.53,5.61-1.59,8.12l-100.76,123.95,54.61,116.39c1.17,2.52,1,5.1-.53,7.75-1.53,2.65-3.94,3.97-7.22,3.97h-38.05c-4,0-6.82-.94-8.46-2.83-1.65-1.89-2.7-3.34-3.17-4.35l-36.29-76.33-65.88,76.33c-.71,1.01-2.11,2.46-4.23,4.35-2.11,1.89-5.28,2.83-9.51,2.83h-46.15Z"/>
    <path class="cls-2" d="m790.85,346.62c-14.57,0-28.01-2.14-40.34-6.42-12.33-4.28-22.67-10.7-31.01-19.27-8.34-8.56-14.21-19.27-17.62-32.12-3.41-12.85-3.7-27.96-.88-45.35,1.64-10.83,3.58-21.6,5.81-32.31,2.23-10.7,4.52-21.6,6.87-32.69,7.75-34.01,21.67-59.83,41.75-77.47,20.08-17.63,46.68-26.45,79.8-26.45,14.56,0,27.95,2.21,40.17,6.61,12.21,4.41,22.55,11.02,31,19.84,8.46,8.82,14.38,19.65,17.79,32.5,3.4,12.85,3.7,27.84.88,44.97-1.88,11.09-3.88,21.98-5.99,32.69-2.11,10.71-4.46,21.48-7.05,32.31-7.99,34.77-21.97,60.65-41.93,77.66-19.97,17.01-46.39,25.51-79.27,25.51Zm3.88-48.75c14.09,0,26.54-4.47,37.35-13.42,10.8-8.94,18.32-23.24,22.55-42.89,2.58-11.08,4.87-21.47,6.87-31.18,1.99-9.7,3.82-19.96,5.46-30.8,3.52-19.65,2.05-33.94-4.4-42.89-6.46-8.94-16.86-13.41-31.18-13.41s-26.78,4.48-37.35,13.41c-10.57,8.95-18.09,23.24-22.55,42.89-2.59,10.83-4.82,21.1-6.69,30.8-1.88,9.7-3.76,20.09-5.64,31.18-3.29,19.65-1.82,33.95,4.4,42.89,6.22,8.95,16.61,13.42,31.18,13.42Z"/>
  </g>
  <g>
    <path class="cls-1" d="m114.74,342.85c-3.76,0-6.58-1.07-8.46-3.21-1.88-2.14-2.94-4.72-3.17-7.75l-26.07-243.36c-.24-3.27.47-5.79,2.11-7.56,1.64-1.76,3.75-2.65,6.34-2.65h35.94c3.52,0,6.04,1.01,7.58,3.02,1.52,2.02,2.41,4.03,2.64,6.05l18.32,184.79,91.25-184.79c.7-2.01,2.17-4.03,4.4-6.05,2.23-2.01,5.11-3.02,8.63-3.02h40.52c2.82,0,4.64,1.2,5.46,3.59.82,2.4.53,4.98-.88,7.75l-121.55,242.22c-1.41,3.02-3.41,5.61-5.99,7.75-2.59,2.14-5.87,3.21-9.87,3.21h-47.21Z"/>
    <path class="cls-1" d="m276.11,342.85c-2.35,0-4.23-.88-5.64-2.65-1.41-1.76-1.88-4.03-1.41-6.8l48.62-245.63c.47-2.77,1.76-5.04,3.88-6.8,2.11-1.76,4.34-2.65,6.69-2.65h159.6c2.58,0,4.52.89,5.81,2.65,1.29,1.77,1.7,4.03,1.23,6.8l-5.99,30.23c-.47,2.52-1.71,4.66-3.7,6.42-2,1.77-4.29,2.65-6.87,2.65h-114.15l-11.98,59.33h106.4c2.58,0,4.52.89,5.81,2.65,1.29,1.77,1.7,4.03,1.23,6.8l-5.64,27.96c-.47,2.52-1.71,4.66-3.7,6.42-2,1.77-4.29,2.65-6.87,2.65h-106.05l-12.33,61.22h116.97c2.58,0,4.52.89,5.81,2.65,1.29,1.77,1.7,4.03,1.23,6.8l-5.99,29.85c-.47,2.77-1.71,5.04-3.7,6.8-2,1.77-4.29,2.65-6.87,2.65h-162.42Z"/>
    <path class="cls-1" d="m462.13,342.85c-2.82,0-4.81-1.45-5.99-4.35-1.17-2.89-.7-5.6,1.41-8.12l106.05-123.95-54.26-116.01c-1.41-2.77-1.29-5.48.35-8.12,1.64-2.65,3.99-3.97,7.05-3.97h38.4c4.23,0,7.1.94,8.63,2.83,1.52,1.89,2.52,3.47,3,4.72l35.94,77.09,64.12-77.09c1.17-1.26,2.76-2.83,4.76-4.72,1.99-1.89,5.11-2.83,9.34-2.83h42.28c3.05,0,5.11,1.45,6.17,4.35,1.06,2.9.53,5.61-1.59,8.12l-100.76,123.95,54.61,116.39c1.17,2.52,1,5.1-.53,7.75-1.53,2.65-3.94,3.97-7.22,3.97h-38.05c-4,0-6.82-.94-8.46-2.83-1.65-1.89-2.7-3.34-3.17-4.35l-36.29-76.33-65.88,76.33c-.71,1.01-2.11,2.46-4.23,4.35-2.11,1.89-5.28,2.83-9.51,2.83h-46.15Z"/>
    <path class="cls-1" d="m790.85,346.62c-14.57,0-28.01-2.14-40.34-6.42-12.33-4.28-22.67-10.7-31.01-19.27-8.34-8.56-14.21-19.27-17.62-32.12-3.41-12.85-3.7-27.96-.88-45.35,1.64-10.83,3.58-21.6,5.81-32.31,2.23-10.7,4.52-21.6,6.87-32.69,7.75-34.01,21.67-59.83,41.75-77.47,20.08-17.63,46.68-26.45,79.8-26.45,14.56,0,27.95,2.21,40.17,6.61,12.21,4.41,22.55,11.02,31,19.84,8.46,8.82,14.38,19.65,17.79,32.5,3.4,12.85,3.7,27.84.88,44.97-1.88,11.09-3.88,21.98-5.99,32.69-2.11,10.71-4.46,21.48-7.05,32.31-7.99,34.77-21.97,60.65-41.93,77.66-19.97,17.01-46.39,25.51-79.27,25.51Zm3.88-48.75c14.09,0,26.54-4.47,37.35-13.42,10.8-8.94,18.32-23.24,22.55-42.89,2.58-11.08,4.87-21.47,6.87-31.18,1.99-9.7,3.82-19.96,5.46-30.8,3.52-19.65,2.05-33.94-4.4-42.89-6.46-8.94-16.86-13.41-31.18-13.41s-26.78,4.48-37.35,13.41c-10.57,8.95-18.09,23.24-22.55,42.89-2.59,10.83-4.82,21.1-6.69,30.8-1.88,9.7-3.76,20.09-5.64,31.18-3.29,19.65-1.82,33.95,4.4,42.89,6.22,8.95,16.61,13.42,31.18,13.42Z"/>
  </g>
</svg>